<?xml version="1.0" standalone="no"?>
<!DOCTYPE svg PUBLIC "-//W3C//DTD SVG 20010904//EN"
 "http://www.w3.org/TR/2001/REC-SVG-20010904/DTD/svg10.dtd">
<svg version="1.0" xmlns="http://www.w3.org/2000/svg"
 width="952.000000pt" height="891.000000pt" viewBox="0 0 952.000000 891.000000"
 preserveAspectRatio="xMidYMid meet">

<g transform="translate(0.000000,891.000000) scale(0.100000,-0.100000)"
fill="#000000" stroke="none">
<path d="M3107 8732 l-57 -58 0 -502 c0 -324 -4 -502 -10 -502 -5 0 -42 8 -82
19 -88 22 -110 27 -413 91 -132 28 -391 85 -575 125 -565 124 -721 156 -739
150 -10 -3 -32 -23 -49 -45 l-32 -39 0 -334 c0 -256 3 -337 13 -344 6 -5 100
-24 207 -42 226 -38 797 -148 823 -159 14 -5 2 -14 -50 -36 -402 -171 -708
-516 -809 -913 -35 -139 -47 -281 -34 -422 17 -204 55 -339 166 -605 l59 -138
185 -132 c102 -73 212 -151 246 -173 l61 -41 -92 181 c-204 408 -296 748 -282
1052 7 152 34 261 98 390 60 123 123 207 229 308 236 226 535 342 910 353 91
3 170 2 175 -3 7 -5 7 -214 2 -618 -4 -335 -6 -1140 -3 -1788 3 -647 2 -1177
-2 -1177 -4 0 -13 5 -19 11 -7 7 -12 -36 -15 -148 -5 -153 -5 -159 17 -183 21
-24 23 -36 29 -235 3 -115 6 -454 7 -752 l0 -543 22 -5 c66 -15 652 -141 770
-164 l137 -28 0 76 c-1 42 -5 240 -10 441 -5 200 -8 366 -7 367 2 1 34 -23 72
-54 268 -214 730 -547 749 -540 36 14 825 635 1106 871 85 71 156 130 157 131
2 1 -60 116 -94 173 -6 10 -45 -17 -143 -99 -275 -229 -562 -451 -884 -683
l-148 -107 -117 82 c-153 108 -360 264 -548 413 -127 100 -154 126 -157 151
-7 50 -88 4096 -82 4102 11 12 205 -145 330 -266 196 -193 364 -415 506 -668
34 -62 65 -113 69 -113 3 1 24 40 46 87 114 248 300 521 487 717 66 69 79 78
104 74 16 -3 91 -18 166 -34 l137 -28 26 24 c20 18 25 33 25 69 0 25 5 93 12
149 l12 104 55 25 c85 38 220 81 307 99 124 25 377 30 506 10 312 -49 581
-188 814 -420 262 -262 385 -545 385 -886 0 -150 -19 -265 -65 -395 l-35 -96
67 37 c37 21 131 77 209 126 155 97 145 85 172 208 37 167 43 376 16 537 -88
519 -479 960 -1012 1142 -186 64 -265 75 -508 75 -206 0 -227 -1 -340 -28
-151 -35 -278 -82 -426 -157 -64 -33 -118 -59 -121 -59 -3 0 -5 16 -4 36 l1
36 -200 54 c-191 52 -1086 274 -1546 383 l-216 52 -7 46 c-3 25 -6 258 -7 517
-1 259 -4 495 -7 525 l-7 54 -160 38 c-149 36 -495 109 -513 109 -4 0 -33 -26
-65 -58z m1253 -2061 c524 -112 922 -200 928 -205 2 -3 -30 -48 -72 -102 -127
-161 -263 -376 -357 -566 -30 -60 -56 -108 -59 -108 -3 0 -34 53 -70 117 -193
347 -430 647 -700 887 -41 36 -68 64 -60 61 8 -2 184 -40 390 -84z"/>
<path d="M9083 6032 c-2 -75 -38 -171 -98 -263 -62 -94 -268 -301 -405 -406
-371 -285 -882 -572 -1375 -773 -206 -84 -366 -163 -468 -232 -380 -257 -640
-624 -697 -980 -18 -110 -8 -321 20 -423 58 -218 190 -390 364 -475 109 -54
211 -73 355 -67 188 7 338 56 493 159 155 104 273 254 324 413 23 68 26 98 26
200 0 193 -53 345 -164 470 -121 135 -319 205 -498 175 -328 -55 -598 -461
-471 -707 60 -116 207 -174 316 -124 85 39 175 182 161 255 -8 39 -43 76 -73
76 -27 0 -47 -28 -63 -90 -26 -99 -78 -163 -130 -163 -62 0 -111 75 -111 172
-1 164 90 296 259 378 65 31 90 38 159 41 75 4 87 2 146 -26 160 -75 238 -244
193 -419 -48 -190 -201 -367 -399 -463 -186 -90 -388 -94 -541 -12 -83 44
-175 144 -223 242 -59 119 -76 200 -70 330 15 307 232 621 597 867 165 110
321 175 670 279 905 268 1390 490 1650 753 152 154 209 273 210 436 0 50 -7
118 -15 150 -15 61 -90 222 -122 262 -18 22 -18 22 -20 -35z"/>
<path d="M514 5923 c-69 -93 -89 -127 -114 -203 -25 -73 -29 -190 -10 -261 32
-117 119 -247 247 -370 231 -219 507 -383 1171 -693 193 -90 383 -185 424
-212 351 -234 580 -571 595 -879 9 -165 -39 -300 -149 -420 -122 -133 -274
-180 -447 -140 -264 63 -492 332 -493 582 0 120 59 220 164 278 46 26 63 30
133 30 68 0 89 -4 137 -28 208 -102 305 -357 187 -492 -38 -43 -84 -48 -118
-11 -25 27 -51 103 -51 153 0 32 -28 73 -49 73 -6 0 -23 -11 -38 -24 -24 -21
-28 -32 -27 -73 1 -90 54 -181 128 -220 43 -22 126 -20 180 6 90 44 135 125
136 242 0 205 -159 429 -357 501 -83 31 -214 31 -308 1 -169 -55 -305 -213
-351 -409 -22 -96 -15 -265 16 -353 47 -133 173 -282 319 -376 137 -89 265
-127 427 -127 238 0 424 123 542 357 167 334 89 773 -203 1135 -122 152 -315
318 -477 410 -277 159 -413 246 -622 400 -398 292 -715 603 -849 833 -72 124
-90 178 -91 274 -1 46 -1 83 -2 83 0 0 -23 -30 -50 -67z"/>
<path d="M5090 5780 c0 -37 2 -39 35 -46 65 -12 65 -13 65 -366 0 -338 -3
-360 -44 -303 -57 79 -99 94 -150 54 -20 -16 -26 -29 -26 -60 0 -55 14 -77 63
-100 117 -52 268 15 334 149 l28 57 5 261 c4 235 7 264 23 282 10 11 29 23 43
26 20 5 24 12 24 46 l0 40 -200 0 -200 0 0 -40z"/>
<path d="M5772 5550 c-125 -26 -212 -143 -220 -298 -6 -111 9 -161 70 -227 74
-81 167 -105 271 -69 50 17 134 85 156 127 13 24 12 28 -15 51 -28 24 -30 24
-49 6 -58 -52 -128 -63 -183 -30 -34 21 -71 87 -72 128 0 22 0 22 165 22 l165
0 0 33 c0 51 -27 129 -60 175 -49 69 -137 100 -228 82z m78 -110 c10 -14 21
-40 24 -57 l6 -33 -75 0 c-82 0 -88 6 -66 63 23 60 79 74 111 27z"/>
<path d="M6273 5550 c-54 -11 -91 -31 -127 -69 -24 -25 -30 -42 -34 -89 -7
-100 13 -124 174 -210 72 -39 114 -68 124 -86 14 -26 14 -28 -9 -47 -50 -41
-135 -11 -186 66 -27 40 -34 45 -69 45 l-39 0 5 -80 c3 -44 7 -82 10 -85 16
-16 132 -48 188 -52 91 -7 146 10 196 61 33 33 44 51 49 90 17 108 -33 178
-175 244 -52 24 -103 51 -112 60 -27 23 -22 51 10 63 59 23 131 -13 168 -83
12 -22 22 -28 49 -28 34 0 35 1 34 38 0 20 -4 57 -7 81 -7 42 -9 45 -57 61
-66 22 -140 30 -192 20z"/>
<path d="M6713 5546 l-113 -9 0 -38 c0 -26 5 -39 13 -39 8 0 21 -8 30 -18 13
-14 16 -51 19 -209 3 -209 6 -218 70 -266 52 -39 163 -31 203 13 23 25 35 25
35 0 0 -24 35 -26 139 -9 117 18 111 15 111 59 0 32 -4 40 -18 40 -11 0 -26 8
-35 18 -15 16 -17 48 -17 243 l0 224 -120 -9 -120 -9 0 -39 c0 -26 4 -38 14
-38 8 0 22 -7 30 -16 13 -13 16 -43 16 -174 0 -153 -1 -159 -22 -174 -31 -22
-64 -20 -88 4 -19 19 -20 33 -20 234 0 118 -3 216 -7 218 -5 2 -59 -1 -120 -6z"/>
<path d="M7428 5549 c-85 -13 -151 -69 -164 -135 -17 -91 31 -159 159 -224
112 -58 147 -85 147 -116 0 -17 -8 -27 -26 -34 -64 -25 -124 1 -176 75 -28 40
-36 45 -71 45 l-39 0 7 -77 c4 -43 9 -81 11 -85 3 -4 30 -17 62 -29 43 -17 79
-23 147 -23 82 -1 95 2 138 27 83 49 110 152 66 244 -24 50 -70 84 -179 132
-113 51 -132 74 -88 105 51 36 120 11 168 -60 28 -39 36 -45 63 -42 31 3 31 3
28 55 -5 92 -11 105 -67 123 -65 22 -128 29 -186 19z"/>
<path d="M264 5384 c-12 -84 2 -242 30 -329 65 -203 223 -371 451 -481 125
-59 220 -84 345 -90 l105 -5 -123 65 c-172 92 -290 175 -411 291 -158 152
-273 318 -348 502 -20 48 -37 90 -39 91 -1 2 -6 -18 -10 -44z"/>
<path d="M9284 5333 c-130 -233 -332 -443 -574 -598 -108 -70 -295 -157 -444
-207 -119 -40 -126 -43 -95 -50 60 -14 280 -10 365 7 397 76 686 326 774 669
19 74 39 266 28 266 -3 0 -28 -39 -54 -87z"/>
<path d="M115 4870 c16 -154 54 -267 126 -375 136 -203 384 -338 673 -366 85
-8 244 3 269 18 5 3 -42 20 -105 38 -189 55 -365 139 -528 254 -109 76 -277
253 -359 376 -40 61 -75 112 -78 115 -2 3 -2 -24 2 -60z"/>
<path d="M9388 4773 c-57 -75 -204 -219 -288 -283 -238 -181 -504 -294 -829
-350 -62 -11 -127 -20 -142 -20 -16 0 -29 -4 -29 -10 0 -5 2 -10 3 -10 2 0 38
-9 80 -19 182 -47 385 -47 577 0 106 25 284 112 368 180 131 105 240 277 283
447 28 111 23 125 -23 65z"/>
<path d="M7755 4442 c-11 -2 -95 -29 -187 -59 l-168 -54 -38 -52 c-21 -29 -72
-100 -114 -158 l-75 -105 66 -17 c36 -10 91 -29 121 -43 45 -21 56 -23 65 -12
173 228 362 496 353 502 -1 1 -12 0 -23 -2z"/>
<path d="M130 4395 c0 -54 29 -182 55 -248 80 -195 265 -361 489 -438 89 -31
247 -59 333 -59 65 0 203 20 203 30 0 4 -26 13 -57 20 -91 20 -248 77 -360
130 -248 118 -467 309 -613 533 -23 37 -44 67 -46 67 -2 0 -4 -16 -4 -35z"/>
<path d="M9270 4194 c-200 -235 -491 -421 -810 -518 -107 -32 -204 -52 -349
-70 -62 -8 -115 -17 -118 -20 -3 -2 30 -16 74 -29 217 -68 499 -59 713 24 224
86 391 239 486 444 34 73 78 218 72 236 -2 5 -32 -25 -68 -67z"/>
<path d="M2128 4020 l73 -95 81 -27 81 -27 -44 45 c-41 42 -158 132 -231 178
-29 18 -23 9 40 -74z"/>
<path d="M4965 781 c-3 -6 -5 -24 -3 -39 3 -26 1 -27 -47 -32 -48 -5 -50 -6
-53 -39 l-3 -34 50 5 c28 3 51 3 51 1 0 -2 -6 -18 -14 -36 -15 -38 -66 -84
-102 -93 -30 -8 -30 -18 -2 -38 63 -44 133 11 169 132 12 40 15 43 43 40 l31
-3 -4 -87 -3 -88 35 0 35 0 7 87 c4 48 11 98 16 110 11 31 -13 43 -86 43 l-56
0 7 35 c5 31 4 35 -14 35 -11 0 -27 3 -35 6 -8 3 -18 0 -22 -5z"/>
<path d="M6871 767 c-23 -60 -171 -184 -260 -218 -25 -9 -46 -23 -46 -30 0 -8
17 -23 38 -34 l37 -20 40 22 c38 20 40 20 40 3 0 -17 10 -18 193 -13 105 3
195 10 198 15 3 5 22 2 41 -8 46 -22 83 -12 103 26 8 16 15 31 15 33 0 2 -18
7 -39 10 -22 3 -61 16 -87 28 -58 29 -187 147 -180 165 6 17 -14 32 -52 40
-27 6 -33 3 -41 -19z m100 -147 c34 -33 66 -60 71 -60 4 0 8 -4 8 -10 0 -6
-52 -10 -135 -10 -74 0 -135 3 -135 7 0 6 121 133 126 133 1 0 30 -27 65 -60z"/>
<path d="M5834 768 c-3 -5 -4 -25 -2 -46 l3 -37 -41 -1 c-52 -1 -64 -9 -64
-41 0 -24 2 -25 53 -21 50 3 52 2 52 -22 0 -23 -4 -25 -47 -26 -67 -2 -80 -9
-76 -41 l3 -28 85 3 85 3 -33 -31 c-18 -16 -41 -30 -52 -30 -10 0 -23 -7 -27
-15 -5 -8 -25 -20 -46 -27 -36 -13 -37 -14 -22 -36 21 -29 49 -28 113 4 33 16
63 24 86 22 l34 -3 -19 -24 c-18 -22 -21 -23 -38 -7 -17 15 -19 15 -36 -4 -14
-16 -16 -23 -7 -32 21 -21 13 -28 -27 -28 -57 0 -71 -8 -71 -41 0 -33 5 -34
80 -14 30 8 56 15 58 15 1 0 2 -11 2 -25 0 -28 -31 -49 -60 -40 -25 8 -25 -6
-1 -36 14 -17 28 -23 57 -22 50 1 74 30 74 88 l0 44 43 6 c55 8 64 14 72 46
l7 27 -56 -13 c-31 -7 -56 -10 -56 -7 0 3 18 25 40 47 l41 41 -21 19 c-14 12
-33 18 -56 17 -40 -3 -43 7 -11 34 26 22 96 25 138 5 36 -17 63 -2 89 49 19
37 24 40 62 40 l41 0 -7 -57 c-7 -66 -34 -153 -46 -153 -8 0 -22 37 -34 93 -6
24 -10 26 -34 21 -51 -12 -54 -23 -22 -90 47 -99 47 -107 5 -142 -21 -16 -54
-38 -74 -48 -20 -11 -38 -20 -40 -21 -10 -6 34 -43 51 -43 30 0 91 29 120 57
l28 26 23 -25 c40 -43 79 -59 120 -47 59 16 64 34 14 53 -23 9 -58 28 -76 44
l-32 27 31 93 c17 50 34 118 38 149 6 50 10 58 32 63 18 4 25 13 25 30 0 25
-2 25 -94 28 l-94 3 6 37 c3 20 9 47 13 59 5 18 1 25 -22 33 -42 16 -50 7 -57
-59 -7 -66 -39 -152 -65 -173 -13 -11 -15 -10 -10 10 6 20 3 22 -33 22 l-39 0
32 65 c34 69 33 79 -13 90 -23 6 -27 3 -33 -20 -6 -24 -11 -26 -49 -23 -42 3
-42 3 -45 44 -3 38 -6 42 -33 46 -16 3 -32 1 -35 -4z m126 -143 c0 -15 -34
-55 -46 -55 -14 0 -20 41 -7 53 8 8 53 9 53 2z"/>
<path d="M4290 641 l0 -130 -157 -3 -158 -3 -3 -37 -3 -37 162 6 161 6 -3
-154 -4 -154 45 1 45 1 3 152 3 152 57 -5 c31 -3 94 -8 139 -11 l82 -6 21 33
c38 63 38 63 -141 60 l-161 -3 3 128 3 128 -47 3 -47 3 0 -130z"/>
<path d="M2509 743 c0 -5 0 -62 0 -127 0 -89 3 -121 13 -125 7 -3 93 -4 192
-1 l179 5 2 105 c2 58 5 114 6 125 4 19 -2 20 -193 23 -109 1 -198 -1 -199 -5z
m321 -68 l0 -25 -125 0 -125 0 0 25 0 25 125 0 125 0 0 -25z m0 -104 c0 -17
-11 -20 -92 -26 -126 -9 -152 -6 -156 23 -3 22 -2 22 122 22 117 0 126 -1 126
-19z"/>
<path d="M3295 572 c0 -120 -4 -192 -14 -224 -18 -62 -71 -123 -121 -140 -39
-13 -40 -14 -25 -36 31 -43 123 -19 172 44 49 65 65 141 70 347 l6 187 -44 0
-44 0 0 -178z"/>
<path d="M3715 453 l0 -298 37 0 38 0 1 295 2 295 -39 3 -39 3 0 -298z"/>
<path d="M5231 720 c-3 -3 -7 -56 -8 -118 l-1 -113 140 3 140 3 1 110 0 110
-132 5 c-73 3 -136 3 -140 0z m199 -115 l0 -55 -65 0 -65 0 0 55 0 55 65 0 65
0 0 -55z"/>
<path d="M2296 711 c-3 -5 -3 -23 0 -40 8 -37 27 -40 84 -11 45 23 52 45 18
54 -34 9 -96 7 -102 -3z"/>
<path d="M3510 714 c0 -5 -2 -123 -3 -261 l-4 -253 39 0 38 0 0 255 c0 245 -1
255 -19 255 -11 0 -26 3 -35 6 -9 3 -16 2 -16 -2z"/>
<path d="M3206 568 c-2 -7 -7 -25 -10 -40 -3 -14 -20 -40 -37 -57 -26 -26 -29
-34 -18 -47 7 -9 24 -14 43 -12 39 4 64 45 68 113 3 45 1 50 -20 53 -12 2 -24
-3 -26 -10z"/>
<path d="M3401 556 c-10 -12 -8 -23 14 -60 46 -79 70 -73 58 15 -7 48 -11 54
-34 57 -14 2 -31 -4 -38 -12z"/>
<path d="M3616 557 c-17 -13 -17 -15 10 -65 26 -48 46 -63 58 -44 2 4 1 32 -2
62 -6 45 -11 56 -27 58 -11 1 -28 -3 -39 -11z"/>
<path d="M2337 511 c-26 -3 -47 -9 -47 -13 0 -5 0 -21 0 -38 0 -25 4 -30 23
-30 32 0 97 47 97 70 0 11 -6 19 -12 18 -7 0 -34 -4 -61 -7z"/>
<path d="M5157 473 c-4 -3 -7 -17 -7 -31 l0 -25 -124 5 c-135 6 -146 3 -146
-44 l0 -28 90 7 c78 5 90 4 90 -10 0 -30 -110 -101 -197 -127 -24 -7 -43 -17
-43 -21 0 -11 38 -35 68 -44 38 -11 124 37 195 109 35 36 66 66 68 66 2 0 2
-39 0 -86 -2 -49 1 -90 7 -96 6 -6 24 -7 41 -3 l31 7 0 99 0 100 78 -79 c116
-116 190 -144 238 -91 20 23 22 21 -40 43 -50 19 -166 102 -174 125 -3 10 15
12 87 10 l91 -4 0 33 c0 19 -5 32 -12 33 -7 0 -70 0 -140 -1 l-128 -1 0 24 c0
17 -7 27 -22 31 -30 8 -43 7 -51 -1z"/>
<path d="M2500 442 c-6 -2 -10 -48 -10 -108 l0 -104 -29 0 c-23 0 -30 -5 -35
-26 -4 -15 -3 -30 1 -34 4 -3 67 -4 138 -1 72 3 189 3 260 -1 122 -6 131 -5
148 14 9 11 17 28 17 38 0 15 -6 17 -41 13 l-41 -6 3 101 c2 56 0 104 -3 107
-6 7 -391 12 -408 7z m228 -129 l3 -73 -31 0 -30 0 0 68 c0 75 4 84 35 80 18
-3 20 -11 23 -75z m103 67 c6 0 9 -31 7 -72 -3 -67 -5 -73 -25 -76 -22 -3 -23
-1 -23 78 0 71 2 81 16 76 9 -3 20 -6 25 -6z m-221 -75 c0 -73 -1 -75 -25 -75
-24 0 -25 2 -25 75 0 73 1 75 25 75 24 0 25 -2 25 -75z"/>
<path d="M6620 350 c0 -37 2 -40 23 -36 12 3 58 8 102 11 l80 5 -60 -55 c-33
-31 -70 -58 -82 -61 -26 -7 -30 -31 -9 -59 12 -17 18 -17 71 -7 87 18 345 15
369 -3 18 -13 22 -13 43 6 12 12 20 26 17 31 -5 8 -133 105 -162 122 -15 9
-52 -19 -52 -39 0 -7 10 -19 22 -27 21 -14 16 -15 -67 -21 -50 -3 -94 -3 -98
0 -5 3 10 19 33 36 22 18 43 42 47 54 5 20 11 23 61 23 31 0 96 -5 145 -11 98
-13 110 -9 122 44 l7 27 -306 0 -306 0 0 -40z"/>
<path d="M2340 286 c-42 -11 -45 -14 -45 -45 0 -48 24 -61 61 -32 34 26 65 71
58 83 -6 10 -17 9 -74 -6z"/>
</g>
</svg>
